# xmcd
#
# Track frame offsets: 
#        150
#        22882
#        49242
#        70232
#        89577
#        111077
#        138552
#        158177
#        219747
#        238970
#
# Disc length: 3528 seconds
#
# Revision: 5
# Processed by: cddbd v1.5.2PL0 Copyright (c) Steve Scherf et al.
# Submitted via: ExactAudioCopy v0.99pb5
#
DISCID=920dc60a
DTITLE=Mercyful Fate - Dead Again
DYEAR=1998
DGENRE=Metal
TTITLE0=Torture (1629)
TTITLE1=The Night
TTITLE2=Since Forever
TTITLE3=The Lady Who Cries
TTITLE4=Banshee
TTITLE5=Mandrake
TTITLE6=Sucking Your Blood
TTITLE7=Dead Again
TTITLE8=Fear
TTITLE9=Crossroads
EXTD=YEAR: 1998
EXTT0=
EXTT1=
EXTT2=
EXTT3=
EXTT4=
EXTT5=
EXTT6=
EXTT7=
EXTT8=
EXTT9=
PLAYORDER=
